<?xml version="1.0" encoding="UTF-8"?>
<svg version="1.1" xmlns="http://www.w3.org/2000/svg" width="1280" height="1280">
<path d="M0 0 C1.74727911 -0.00239293 3.4945572 -0.0056601 5.24183324 -0.0097166 C10.03739829 -0.01831809 14.83288484 -0.01451784 19.62845106 -0.00866088 C24.84798545 -0.00448525 30.06750566 -0.01189555 35.2870366 -0.01781338 C44.43315142 -0.02657469 53.57924385 -0.02788773 62.72536182 -0.02431011 C76.32608506 -0.01900405 89.92678661 -0.02509745 103.52750748 -0.03339304 C128.52440189 -0.04822027 153.52128294 -0.05048233 178.51818008 -0.04807267 C182.05869472 -0.04773421 185.59920937 -0.04741211 189.13972402 -0.04710698 C190.19460655 -0.04701542 190.19460655 -0.04701542 191.27079985 -0.046922 C206.86291199 -0.04564956 222.45502277 -0.04825248 238.04713451 -0.05163305 C241.60844552 -0.05240379 245.16975654 -0.05314852 248.73106756 -0.05389806 C250.16039015 -0.05419976 251.58971274 -0.05450164 253.01903533 -0.05480371 C253.7275302 -0.05495338 254.43602507 -0.05510306 255.16598948 -0.05525728 C256.59909107 -0.05556081 258.03219266 -0.05586549 259.46529424 -0.05617132 C300.12450446 -0.06484342 340.78371347 -0.06948892 381.4429245 -0.06522369 C382.19567411 -0.06514564 382.94842371 -0.06506758 383.72398391 -0.06498716 C392.11776103 -0.06411437 400.51153815 -0.06318511 408.90531526 -0.06223653 C410.04204643 -0.06210826 410.04204643 -0.06210826 411.20174188 -0.06197741 C417.49825723 -0.06126665 417.49825723 -0.06126665 420.39579263 -0.06093518 C468.86888373 -0.05539936 517.34195579 -0.06294205 565.81504345 -0.08170605 C578.0292606 -0.08642834 590.24347775 -0.09110888 602.45769501 -0.09554291 C603.58584113 -0.09595289 603.58584113 -0.09595289 604.73677808 -0.09637116 C627.91979145 -0.10474347 651.10280323 -0.10942221 674.2858181 -0.11025047 C675.01374603 -0.11027684 675.74167396 -0.11030321 676.49166032 -0.11033037 C692.47194295 -0.11087117 708.45222545 -0.11049865 724.43250803 -0.10929066 C730.15059517 -0.10886504 735.86868231 -0.10849991 741.58676945 -0.10816122 C743.0092558 -0.10807591 744.43174214 -0.10798698 745.85422849 -0.1078944 C768.51065761 -0.10644624 791.16707377 -0.11356785 813.82349977 -0.12489836 C837.27896852 -0.13655251 860.73440914 -0.13710672 884.18988005 -0.12505493 C897.71081446 -0.11841877 911.231688 -0.12007487 924.75261756 -0.13364345 C933.78401476 -0.14187641 942.81536628 -0.13920538 951.84675975 -0.12766818 C956.99260045 -0.1214004 962.13832221 -0.11984036 967.28415612 -0.13153151 C971.97083889 -0.14208149 976.65730212 -0.13868063 981.34397319 -0.12442699 C983.02366064 -0.12171154 984.70336584 -0.12395324 986.38303651 -0.13193413 C996.90063533 -0.17847397 1006.39636513 0.86715249 1016.65122509 3.25447559 C1018.79629497 3.67505496 1020.94202148 4.09231612 1023.08872509 4.50447559 C1031.05664414 6.37928008 1038.29050331 9.75184921 1045.65122509 13.25447559 C1046.3092915 13.56497852 1046.9673579 13.87548145 1047.64536572 14.19539356 C1053.74267021 17.09054936 1059.43104378 19.90432451 1064.65122509 24.25447559 C1065.79591259 24.90416309 1065.79591259 24.90416309 1066.96372509 25.56697559 C1072.8752011 29.27883262 1077.73828755 34.34153805 1082.65122509 39.25447559 C1084.169493 40.56994237 1085.69057458 41.88216538 1087.21372509 43.19197559 C1090.74851362 46.30848081 1093.38860309 49.12273107 1095.65122509 53.25447559 C1095.65122509 53.91447559 1095.65122509 54.57447559 1095.65122509 55.25447559 C1096.64122509 55.58447559 1097.63122509 55.91447559 1098.65122509 56.25447559 C1100.01060009 58.11775684 1100.01060009 58.11775684 1101.40122509 60.56697559 C1101.91942822 61.47060841 1102.43763134 62.37424122 1102.97153759 63.30525684 C1103.52583447 64.27849903 1104.08013134 65.25174122 1104.65122509 66.25447559 C1105.24677197 67.23803028 1105.84231884 68.22158497 1106.45591259 69.23494434 C1110.18358013 75.41839285 1113.20199406 81.47198968 1115.65122509 88.25447559 C1116.06243603 89.30119434 1116.47364697 90.34791309 1116.89731884 91.42635059 C1122.04182747 104.92114473 1124.7729654 119.27044631 1124.77887559 133.73325992 C1124.78135176 134.80213562 1124.78135176 134.80213562 1124.78387795 135.89260478 C1124.78818164 138.2732979 1124.78540836 140.65392851 1124.78265285 143.03462315 C1124.7843035 144.76890452 1124.78639023 146.50318553 1124.78887296 148.23746592 C1124.79443646 153.01560691 1124.79376777 157.79372996 1124.79209537 162.57187315 C1124.7913643 167.76565893 1124.79638716 172.95943965 1124.80067039 178.15322328 C1124.80825186 188.4601711 1124.81044352 198.76711375 1124.81099944 209.07406407 C1124.81191294 221.41765452 1124.8185801 233.76124018 1124.82534626 246.10482857 C1124.84102915 275.23266899 1124.84709511 304.36050771 1124.85175329 333.48835136 C1124.85413708 348.31081376 1124.85784069 363.13327571 1124.86179039 377.95573777 C1124.87445519 425.51134867 1124.88523857 473.06695954 1124.88863085 520.6225721 C1124.88879309 522.89533597 1124.88895865 525.16809983 1124.88912523 527.44086369 C1124.88945903 531.99886447 1124.88978951 536.55686524 1124.89011979 541.11486602 C1124.89050669 546.45108292 1124.89089629 551.78729982 1124.89129086 557.12351672 C1124.89140327 558.65078069 1124.89151469 560.17804465 1124.89162511 561.70530862 C1124.89517361 610.74295379 1124.91024801 659.78058431 1124.93356285 708.81822388 C1124.95030996 744.0563442 1124.96578187 779.29446175 1124.97029781 814.5325861 C1124.97043804 815.6201836 1124.97043804 815.6201836 1124.9705811 816.72975276 C1124.9726004 832.64877413 1124.97375624 848.56779545 1124.97410969 864.48681694 C1124.97424586 870.18342629 1124.97445485 875.88003564 1124.97470294 881.57664498 C1124.9747645 882.99378291 1124.97482282 884.41092084 1124.97487789 885.82805877 C1124.97579682 908.38763073 1124.98575438 930.94718736 1125.00033538 953.50675428 C1125.01537672 976.87214029 1125.0195296 1000.23749998 1125.01124242 1023.60289171 C1125.00678791 1037.06721144 1125.01063969 1050.53146837 1125.02648093 1063.99577984 C1125.03623979 1072.99596011 1125.03504397 1081.99609644 1125.0250447 1090.99627632 C1125.01965926 1096.12025934 1125.01892134 1101.24412191 1125.03155342 1106.36809489 C1125.04297654 1111.04084346 1125.04027662 1115.7133747 1125.02688634 1120.38611611 C1125.02447517 1122.05516329 1125.02695429 1123.72422769 1125.03528282 1125.39325584 C1125.12619051 1144.91363012 1123.07960159 1164.97825702 1113.58872509 1182.40291309 C1112.55066252 1184.45308666 1111.84352077 1186.52193801 1111.08872509 1188.69197559 C1109.07043527 1193.87494385 1106.21279116 1198.40876719 1103.21372509 1203.06697559 C1102.7470039 1203.7965044 1102.28028271 1204.52603321 1101.79941845 1205.27766895 C1099.08699115 1209.40449102 1096.23764149 1212.8245346 1092.65122509 1216.25447559 C1092.19747509 1217.05885059 1091.74372509 1217.86322559 1091.27622509 1218.69197559 C1089.36958502 1221.69860032 1087.15057994 1223.4789273 1084.41294384 1225.71150684 C1082.74696146 1227.17062666 1081.44544299 1228.63637849 1080.08872509 1230.37947559 C1077.48615368 1233.44917521 1075.03999131 1235.10391242 1071.65122509 1237.25447559 C1070.26936947 1238.35005037 1068.89502615 1239.45513357 1067.52622509 1240.56697559 C1059.59472081 1246.78933417 1050.87837137 1251.30145879 1041.65122509 1255.25447559 C1040.48019238 1255.75878101 1040.48019238 1255.75878101 1039.28550243 1256.27327442 C1036.8145877 1257.31800508 1034.32938558 1258.32032733 1031.83872509 1259.31697559 C1031.04530712 1259.6553545 1030.25188915 1259.99373341 1029.43442822 1260.34236622 C1014.5964471 1266.21171299 998.11064818 1266.70486508 982.34765148 1266.63199902 C980.59426556 1266.63513875 978.8408816 1266.6395901 977.08750188 1266.64521211 C972.31221053 1266.65678512 967.5371036 1266.64996266 962.76181559 1266.63987826 C957.55031302 1266.63221716 952.33883712 1266.64206796 947.12733841 1266.64960825 C938.00757904 1266.66041033 928.88787301 1266.66013498 919.76811123 1266.65246677 C906.20644747 1266.64109479 892.6448285 1266.64693328 879.08316502 1266.6560917 C856.26159431 1266.67095858 833.44005125 1266.67153466 810.61847973 1266.66336155 C809.57762434 1266.66298897 809.57762434 1266.66298897 808.51574157 1266.66260886 C807.82071666 1266.66236007 807.12569175 1266.66211129 806.40960547 1266.66185496 C785.2101237 1266.65427658 764.01065057 1266.65233533 742.81116772 1266.65592289 C741.38993162 1266.65615533 739.96869553 1266.6563868 738.54745943 1266.6566173 C732.83567817 1266.65754875 727.12389692 1266.65850476 721.41211567 1266.65949659 C705.4466783 1266.66224722 689.48124091 1266.66395931 673.51580334 1266.664855 C672.78885787 1266.66489594 672.0619124 1266.66493688 671.31293828 1266.66497906 C648.15951983 1266.66620635 625.00610439 1266.662829 601.85268688 1266.65630627 C601.1020522 1266.65609552 600.35141751 1266.65588477 599.57803632 1266.65566764 C587.38926783 1266.65223306 575.20049941 1266.64857455 563.01173099 1266.64489712 C514.67378057 1266.63032882 466.33585509 1266.63100501 417.99790478 1266.64558887 C405.81519098 1266.64925264 393.63247717 1266.65288587 381.4497633 1266.65630627 C380.69956459 1266.65651761 379.94936588 1266.65672896 379.17643388 1266.6569467 C356.04650447 1266.6634181 332.91657713 1266.66615755 309.78664684 1266.664855 C308.69703579 1266.66479387 308.69703579 1266.66479387 307.58541239 1266.66473151 C291.63752357 1266.66379395 275.68963498 1266.6618928 259.74174637 1266.65912349 C254.03516175 1266.65813613 248.32857711 1266.65719688 242.62199247 1266.65627136 C241.2024255 1266.6560392 239.78285853 1266.655803 238.36329156 1266.65556277 C217.17109359 1266.65198629 195.97890537 1266.65502298 174.78670861 1266.66260886 C174.09280502 1266.66285725 173.39890143 1266.66310564 172.68397045 1266.66336155 C171.64504677 1266.66373362 171.64504677 1266.66373362 170.58513473 1266.66411321 C147.19345967 1266.67239888 123.8018148 1266.6693161 100.41014123 1266.65351932 C86.93243268 1266.64471747 73.4547836 1266.64412533 59.97707661 1266.65545784 C50.96839144 1266.66219633 41.95975384 1266.65797781 32.95107571 1266.64494353 C27.82245153 1266.63782452 22.69394527 1266.63533092 17.5653249 1266.64616148 C12.88850655 1266.65593686 8.21190945 1266.65161515 3.53510685 1266.6366195 C1.86461768 1266.6336282 0.19410967 1266.63551538 -1.47636433 1266.64323732 C-16.86919754 1266.70927359 -33.12050976 1265.83307465 -47.47377491 1259.81697559 C-48.57205616 1259.38675098 -48.57205616 1259.38675098 -49.69252491 1258.94783497 C-51.16735182 1258.36696016 -52.63756502 1257.77422064 -54.10268116 1257.16927052 C-55.65274307 1256.53795726 -57.21364293 1255.93283978 -58.78236866 1255.3494463 C-65.04138972 1252.99075416 -70.49634257 1249.95356255 -76.09877491 1246.31697559 C-76.90959522 1245.80457325 -77.72041553 1245.29217091 -78.55580616 1244.76424122 C-83.1037062 1241.85432469 -87.28406528 1238.80662653 -91.34877491 1235.25447559 C-92.02682178 1234.68084278 -92.70486866 1234.10720997 -93.40346241 1233.51619434 C-106.152575 1222.49067423 -106.152575 1222.49067423 -110.34877491 1216.25447559 C-110.34877491 1215.59447559 -110.34877491 1214.93447559 -110.34877491 1214.25447559 C-111.33877491 1213.92447559 -112.32877491 1213.59447559 -113.34877491 1213.25447559 C-114.65150928 1211.65974903 -114.65150928 1211.65974903 -115.94252491 1209.61385059 C-116.41561085 1208.87263966 -116.88869678 1208.13142872 -117.37611866 1207.36775684 C-117.86209522 1206.58787403 -118.34807178 1205.80799122 -118.84877491 1205.00447559 C-119.57773975 1203.8578545 -119.57773975 1203.8578545 -120.32143116 1202.68806934 C-121.67607707 1200.55090318 -123.01406602 1198.40412694 -124.34877491 1196.25447559 C-125.16861866 1194.96283497 -125.16861866 1194.96283497 -126.00502491 1193.64510059 C-127.71277509 1190.60689388 -129.0152204 1187.47410592 -130.34877491 1184.25447559 C-130.9097685 1182.98355205 -131.47097305 1181.71272161 -132.03236866 1180.44197559 C-141.17088037 1158.99092825 -142.50914883 1136.24627074 -142.47740936 1113.18705368 C-142.47875819 1111.48275886 -142.48054331 1109.77846434 -142.4827216 1108.07417038 C-142.4874305 1103.40259751 -142.4859568 1098.73104423 -142.48344383 1094.05947042 C-142.48180605 1088.97251618 -142.48595549 1083.88556605 -142.489353 1078.79861313 C-142.49450082 1069.88667737 -142.49592527 1060.97474704 -142.49489689 1052.06280994 C-142.49337134 1038.81005358 -142.4975351 1025.55730322 -142.50277151 1012.30454802 C-142.51244183 987.25687342 -142.51525626 962.20920076 -142.51582857 937.16152477 C-142.51589332 934.40017247 -142.51596126 931.63882017 -142.51603198 928.87746787 C-142.51604898 928.19220071 -142.51606599 927.50693355 -142.51608351 926.80090072 C-142.51649227 911.60370233 -142.51868317 896.40650435 -142.52118783 881.20930618 C-142.52221621 874.9481956 -142.52320625 868.68708501 -142.52420408 862.42597443 C-142.52431466 861.7341381 -142.52442525 861.04230177 -142.52453919 860.32950071 C-142.53086185 820.69249768 -142.53498846 781.05549492 -142.53453064 741.41849136 C-142.53451486 739.93566255 -142.53449913 738.45283374 -142.53448343 736.97000494 C-142.53441005 730.27541896 -142.53432188 723.58083299 -142.53422955 716.88624702 C-142.53418842 713.90106952 -142.53414828 710.91589202 -142.53410823 707.93071452 C-142.53408784 706.43658072 -142.53406682 704.94244692 -142.53404517 703.44831312 C-142.53336504 656.20946239 -142.540681 608.97061915 -142.55458546 561.73177052 C-142.55808662 549.83053528 -142.56155614 537.92930003 -142.56484985 526.02806473 C-142.56505273 525.29521025 -142.5652556 524.56235578 -142.56546462 523.80729359 C-142.57168202 501.21102638 -142.57544565 478.61475978 -142.57670784 456.01849174 C-142.57674779 455.30879695 -142.57678774 454.59910215 -142.5768289 453.86790145 C-142.57768228 438.28647727 -142.57794334 422.70505312 -142.57765853 407.12362891 C-142.57756205 401.54795313 -142.57751 395.97227735 -142.5774798 390.39660156 C-142.57747188 389.00957274 -142.57746168 387.62254391 -142.57744917 386.23551509 C-142.57727304 364.15881152 -142.58296305 342.08211439 -142.59160299 320.00541267 C-142.60050495 297.14295935 -142.60206677 274.28051388 -142.59529086 251.4180591 C-142.59159703 238.24478091 -142.59342262 225.07153086 -142.6032332 211.89825565 C-142.60923669 203.09225153 -142.60793361 194.28626778 -142.6007627 185.48026459 C-142.59688436 180.46729399 -142.59609646 175.45437782 -142.60422006 170.44141107 C-142.69702837 109.05544794 -142.69702837 109.05544794 -129.34877491 81.25447559 C-128.69730641 79.69431671 -128.05043835 78.13221584 -127.41127491 76.56697559 C-119.46865895 58.9463822 -105.75387106 41.67132036 -90.01674366 30.48885059 C-88.19291168 29.20904332 -88.19291168 29.20904332 -86.28627491 27.12947559 C-84.17857079 25.08976193 -81.94160527 23.76867898 -79.37221241 22.37556934 C-77.14449735 21.14129478 -75.00716368 19.7936576 -72.84877491 18.44197559 C-66.27834589 14.48364374 -59.35092146 11.36039387 -52.34877491 8.25447559 C-51.61916553 7.92318653 -50.88955616 7.59189747 -50.13783741 7.25056934 C-44.21788893 4.78176987 -37.82325715 3.76280208 -31.53460733 2.64872996 C-29.99460437 2.3709626 -28.45865513 2.07023604 -26.92628311 1.75306128 C-17.93750887 0.0254115 -9.10742083 -0.02600498 0 0 Z " fill="#000000" transform="translate(148.34877490997314,5.7455244064331055)"/>
<path d="M0 0 C33.66 0 67.32 0 102 0 C102 139.59 102 279.18 102 423 C4.97875956 423 4.97875956 423 -16.87890625 402.40234375 C-18.10668455 401.24730411 -19.33454227 400.09234889 -20.5625 398.9375 C-21.18189453 398.35291016 -21.80128906 397.76832031 -22.43945312 397.16601562 C-26.26805194 393.56848729 -30.17132088 390.07453279 -34.13598633 386.62768555 C-36.64665104 384.43533431 -39.10774113 382.19216208 -41.5625 379.9375 C-42.05717773 379.48342773 -42.55185547 379.02935547 -43.06152344 378.56152344 C-47.3146105 374.64952294 -51.53192368 370.69966282 -55.75 366.75 C-60.10466656 362.67354523 -64.4815276 358.64523483 -69 354.75 C-74.87906817 349.60581535 -80.57337912 344.24491992 -86.30859375 338.94140625 C-87.41403194 337.91923779 -88.51950065 336.89710232 -89.625 335.875 C-90.17244873 335.36880127 -90.71989746 334.86260254 -91.28393555 334.34106445 C-95.29028897 330.64192279 -99.33674164 326.98988941 -103.3984375 323.3515625 C-106.49709266 320.550676 -109.56151182 317.71422368 -112.625 314.875 C-116.00318713 311.74468215 -119.38417184 308.63014772 -122.875 305.625 C-127.49015774 301.63562636 -131.90889224 297.4357815 -136.35961914 293.26538086 C-141.51274319 288.44143953 -146.73160404 283.69787593 -152 279 C-157.76506206 273.85090451 -163.47094751 268.64542211 -169.125 263.375 C-173.34831668 259.43884642 -177.60071548 255.55700865 -181.96875 251.78125 C-188.58233331 245.98164618 -194.99114922 239.94314507 -201.42700195 233.94799805 C-207.60856878 228.1736856 -207.60856878 228.1736856 -213.9375 222.5625 C-218.59053488 218.5526492 -223.03202762 214.31460403 -227.51147461 210.11352539 C-230.63298095 207.19137183 -233.75696182 204.28787492 -237 201.5 C-241.52728731 197.60259614 -245.85542208 193.49225789 -250.21508789 189.40991211 C-260.91534138 179.37425461 -260.91534138 179.37425461 -271.875 169.625 C-276.29535805 165.79772982 -280.55142024 161.79456874 -284.81396484 157.79345703 C-288.34787119 154.48812675 -291.95193423 151.32794459 -295.71264648 148.28149414 C-296.13747314 147.85860107 -296.5622998 147.43570801 -297 147 C-297 146.34 -297 145.68 -297 145 C-297.99 145 -298.98 145 -300 145 C-300 236.74 -300 328.48 -300 423 C-333 423 -366 423 -400 423 C-400 283.74 -400 144.48 -400 1 C-368.65 1 -337.3 1 -305 1 C-300.05 5.95 -300.05 5.95 -295 11 C-291.94426868 13.69228152 -291.94426868 13.69228152 -288.86328125 16.35546875 C-286.99548207 18.00398752 -285.24544376 19.72303581 -283.5 21.5 C-280.51205958 24.53515393 -277.3832925 27.34279376 -274.16015625 30.125 C-270.05325639 33.68975938 -266.03715005 37.35671824 -262 41 C-260.7934375 42.0828125 -260.7934375 42.0828125 -259.5625 43.1875 C-253.5131029 48.61644612 -247.51328114 54.09800099 -241.52783203 59.59716797 C-240.02879298 60.97356272 -238.52835924 62.34841739 -237.02734375 63.72265625 C-232.88957149 67.51141049 -228.75219553 71.30029142 -224.63671875 75.11328125 C-219.5040897 79.86801182 -214.36415949 84.59560195 -209.07421875 89.17578125 C-203.77058238 93.84018461 -198.61307506 98.67240248 -193.41796875 103.45703125 C-186.30594897 110.02035934 -186.30594897 110.02035934 -179.0625 116.4375 C-173.83425931 120.97440307 -168.78513617 125.70875788 -163.70996094 130.41503906 C-158.81489105 134.95227403 -153.90738746 139.47609581 -149 144 C-148.20432617 144.73379883 -148.20432617 144.73379883 -147.39257812 145.48242188 C-140.29405196 152.03390381 -140.29405196 152.03390381 -133.0625 158.4375 C-128.92855515 162.02139813 -124.9258161 165.74225607 -120.91381836 169.46118164 C-117.67537732 172.46080923 -114.4170816 175.43407377 -111.125 178.375 C-106.86245 182.19324512 -102.67679734 186.08862654 -98.5 190 C-92.72813274 195.40398526 -86.90101331 200.73693407 -81 206 C-72.09707928 213.96577117 -63.32207984 222.06498051 -54.5625 230.1875 C-47.91644406 236.36190819 -47.91644406 236.36190819 -41.125 242.375 C-37.14928161 245.80934397 -33.33166633 249.40702611 -29.5 253 C-25.07728961 257.14693062 -20.64333295 261.25660813 -16.04296875 265.20703125 C-12.64506718 268.18912843 -9.34077029 271.27510675 -6.03442383 274.3581543 C-3.23668103 276.98248136 -3.23668103 276.98248136 0 279 C0 186.93 0 94.86 0 0 Z " fill="#FEFEFE" transform="translate(567,403)"/>
<path d="M0 0 C39.81453477 -0.17642722 79.62870032 -0.3241155 119.44351425 -0.40852264 C124.14601865 -0.41852806 128.84852222 -0.42888266 133.55102539 -0.43945312 C134.48719301 -0.44155161 135.42336064 -0.44365009 136.38789698 -0.44581217 C151.53813296 -0.48060478 166.68812563 -0.54367135 181.83821736 -0.61722237 C197.38835593 -0.69208486 212.93836725 -0.73648083 228.48867863 -0.75270796 C238.08104803 -0.76367469 247.67272966 -0.79828689 257.2648873 -0.86333174 C263.84626738 -0.90568185 270.4272929 -0.91838688 277.00879929 -0.90801102 C280.80395786 -0.90289621 284.59791632 -0.91062888 288.39286041 -0.9536438 C292.51486697 -1.00002276 296.63433667 -0.98385109 300.75654602 -0.96203613 C302.54112078 -0.99699023 302.54112078 -0.99699023 304.36174756 -1.03265047 C313.37985999 -0.90390119 318.27194358 2.19247098 325 8 C326.19623003 8.90759761 327.39845173 9.80741355 328.609375 10.6953125 C336.95019913 17.14803963 344.64093257 24.10616644 352.27197266 31.37792969 C353.84870973 32.85798636 355.44859949 34.30061806 357.07421875 35.7265625 C363.4578329 41.33559585 368.74662673 47.33465289 374 54 C374.97216278 55.1103382 375.95055427 56.21528101 376.9375 57.3125 C389.45306018 71.83331568 401.77867095 90.18985988 409.0793457 107.9284668 C410.240768 110.54174395 411.57364385 113.04960728 412.89453125 115.5859375 C416.16465511 122.07365311 418.47680262 128.71608332 420.6875 135.625 C421.06455078 136.77484375 421.44160156 137.9246875 421.83007812 139.109375 C422.90416419 142.40098955 423.95783766 145.69815281 425 149 C425.45354858 150.43170532 425.45354858 150.43170532 425.91625977 151.89233398 C426.18623779 152.76446533 426.45621582 153.63659668 426.734375 154.53515625 C426.96737305 155.28676025 427.20037109 156.03836426 427.44042969 156.81274414 C428.21033351 159.82215443 428.49984038 162.80045213 428.69140625 165.89453125 C428.92142462 168.08129811 428.92142462 168.08129811 429.96484375 170.27734375 C431.27198861 173.71538136 431.6286784 177.11929987 432 180.75 C432.44178983 184.97154727 432.97832417 189.04114279 434.02012444 193.16118526 C435.11600853 198.02799169 435.27462288 202.65116243 435.24050903 207.62416077 C435.24307231 209.01389442 435.24307231 209.01389442 435.24568737 210.43170351 C435.24896217 213.51322469 435.23801182 216.59452452 435.22705078 219.67602539 C435.22648623 221.89407343 435.22680408 224.11212185 435.22793579 226.33016968 C435.2285086 232.33567647 435.21676584 238.34110305 435.20278788 244.34659123 C435.1902686 250.62863459 435.18910907 256.91067986 435.18673706 263.19273376 C435.18123111 273.73161172 435.16874648 284.27046345 435.15087891 294.80932617 C435.13250039 305.66088721 435.11837651 316.51244023 435.10986328 327.36401367 C435.10932729 328.04053988 435.10879129 328.71706608 435.10823905 329.41409308 C435.10361291 335.29957028 435.09930752 341.1850477 435.09503365 347.07052517 C435.07623897 372.38037772 435.03639087 397.69015247 435 423 C379.89 423 324.78 423 268 423 C268 328.29 268 233.58 268 136 C179.56 136 91.12 136 0 136 C0 91.12 0 46.24 0 0 Z " fill="#FCFCFC" transform="translate(681,403)"/>
<path d="M0 0 C84.81 0 169.62 0 257 0 C257 59.07 257 118.14 257 179 C172.19 179 87.38 179 0 179 C0 119.93 0 60.86 0 0 Z " fill="#FCFCFC" transform="translate(681,647)"/>
<path d="M0 0 C6.71773124 4.44174688 12.94979654 8.85428389 17 16 C17.25 19.375 17.25 19.375 17 22 C17.66 22 18.32 22 19 22 C20.97308088 27.77774679 21.33507861 32.97982319 21.3125 39.0625 C21.32861328 39.93455078 21.34472656 40.80660156 21.36132812 41.70507812 C21.36527189 46.91478615 20.83006883 50.45247515 18 55 C17.34 55 16.68 55 16 55 C15.9071875 56.3303125 15.9071875 56.3303125 15.8125 57.6875 C14.0996676 64.67058593 6.63986962 68.98719163 1 73 C0.31808594 73.51433594 -0.36382813 74.02867187 -1.06640625 74.55859375 C-10.29796532 80.38818293 -23.48378397 79.31391459 -33.81640625 77.23046875 C-45.14753796 73.67087669 -53.23445055 66.57415946 -58.875 56.125 C-63.79053614 45.38364325 -65.21129193 31.97131968 -61.0625 20.8125 C-55.88502478 9.74089338 -46.1924642 0.83310954 -35 -4 C-23.70678959 -7.28713089 -9.96592151 -6.12972432 0 0 Z " fill="#00FB02" transform="translate(520,437)"/>
<path d="M0 0 C33.66 0 67.32 0 102 0 C102 139.59 102 279.18 102 423 C69.99 423 37.98 423 5 423 C5 422.67 5 422.34 5 422 C36.35 422 67.7 422 100 422 C100 283.4 100 144.8 100 2 C67.33 2 34.66 2 1 2 C1 93.74 1 185.48 1 280 C0.01 279.67 -0.98 279.34 -2 279 C-1.34 279 -0.68 279 0 279 C0 186.93 0 94.86 0 0 Z " fill="#BCBDBC" transform="translate(567,403)"/>
<path d="M0 0 C0.886875 0.721875 1.77375 1.44375 2.6875 2.1875 C3.32042969 2.66832031 3.95335937 3.14914062 4.60546875 3.64453125 C12.64517824 10.08534917 18.80657577 19.65872326 20.02124023 30.03979492 C20.8928068 46.04185706 20.562726 59.3636587 9.8125 72.0625 C8.78871213 73.12174373 7.75410582 74.1713844 6.6875 75.1875 C6.0275 74.8575 5.3675 74.5275 4.6875 74.1875 C5.6775 73.1975 6.6675 72.2075 7.6875 71.1875 C7.3575 70.8575 7.0275 70.5275 6.6875 70.1875 C4.7075 72.4975 2.7275 74.8075 0.6875 77.1875 C1.3475 77.5175 2.0075 77.8475 2.6875 78.1875 C1.13083045 79.1759096 -0.43312426 80.15285082 -2 81.125 C-2.87011719 81.67027344 -3.74023438 82.21554687 -4.63671875 82.77734375 C-11.14553424 86.20753702 -18.70159467 85.48043296 -25.875 85.5625 C-27.08736328 85.59988281 -28.29972656 85.63726563 -29.54882812 85.67578125 C-42.54575323 85.80122074 -51.70975713 81.80973225 -60.8984375 72.859375 C-70.96613302 61.71648869 -73.10009253 49.36151662 -72.66015625 34.79296875 C-72.09953361 24.96097379 -68.39065599 16.83325827 -62.3125 9.1875 C-61.83425781 8.57261719 -61.35601562 7.95773437 -60.86328125 7.32421875 C-46.26944583 -9.25467237 -18.40246716 -10.06927448 0 0 Z M-61.3125 15.1875 C-63.25557447 18.41773802 -64.85123627 21.71558268 -66.3125 25.1875 C-66.67988281 25.98929687 -67.04726563 26.79109375 -67.42578125 27.6171875 C-70.57142066 36.73538456 -68.17775371 48.26737052 -65.3125 57.1875 C-63.67242764 60.54428362 -61.69138794 63.31679702 -59.3125 66.1875 C-58.34376953 67.39599609 -58.34376953 67.39599609 -57.35546875 68.62890625 C-50.72877595 76.52265312 -42.95226081 80.1844301 -32.72412109 81.52734375 C-18.81805175 82.41852042 -8.84602169 80.77604011 2.125 71.6875 C5.27793627 68.70570432 8.17007366 65.7276308 10.6875 62.1875 C10.6875 60.8675 10.6875 59.5475 10.6875 58.1875 C11.3475 58.1875 12.0075 58.1875 12.6875 58.1875 C16.03606445 52.80682521 16.11324749 48.37895441 16 42.25 C16.00483398 40.94772461 16.00483398 40.94772461 16.00976562 39.61914062 C15.96667514 34.43653053 15.36308281 30.0940871 13.6875 25.1875 C13.0275 25.1875 12.3675 25.1875 11.6875 25.1875 C11.873125 23.95 11.873125 23.95 12.0625 22.6875 C11.40735964 16.57285665 7.78735284 13.0168404 3.26171875 9.07421875 C-6.31818837 1.71252457 -14.96327053 -2.21892514 -27.0625 -2.3125 C-28.25069336 -2.32216797 -28.25069336 -2.32216797 -29.46289062 -2.33203125 C-42.32445993 -2.05219794 -53.36410716 5.34745908 -61.3125 15.1875 Z " fill="#002600" transform="translate(525.3125,433.8125)"/>
<path d="M0 0 C0.66 0.33 1.32 0.66 2 1 C1.34 1.66 0.68 2.32 0 3 C-0.2475 3.721875 -0.495 4.44375 -0.75 5.1875 C-1.93048677 7.84359524 -2.85868865 9.01374641 -4.8125 11.0625 C-12.77971289 20.14005796 -14.0185106 31.45651277 -15 43 C-15.66 43 -16.32 43 -17 43 C-17.35472878 31.53043616 -16.13385337 22.31754998 -11 12 C-10.34 12 -9.68 12 -9 12 C-8.91878906 11.42765625 -8.83757812 10.8553125 -8.75390625 10.265625 C-7.76724305 7.30052315 -6.18895534 5.89424319 -3.9375 3.75 C-3.20402344 3.04359375 -2.47054688 2.3371875 -1.71484375 1.609375 C-1.14894531 1.07828125 -0.58304687 0.5471875 0 0 Z " fill="#000F00" transform="translate(471,437)"/>
<path d="M0 0 C0 0.66 0 1.32 0 2 C-0.99 2 -1.98 2 -3 2 C-3.33 3.32 -3.66 4.64 -4 6 C-2.88625 5.319375 -1.7725 4.63875 -0.625 3.9375 C1.2734375 2.77734375 1.2734375 2.77734375 3 2 C3.66 2.33 4.32 2.66 5 3 C3.44632634 4.01365893 1.88162164 5.01042256 0.3125 6 C-0.99267578 6.8353125 -0.99267578 6.8353125 -2.32421875 7.6875 C-5.16973337 9.08325608 -6.8788594 9.26993648 -10 9 C-10 8.34 -10 7.68 -10 7 C-10.68513672 7.01571045 -11.37027344 7.0314209 -12.07617188 7.04760742 C-15.21736203 7.11044183 -18.35841939 7.14914349 -21.5 7.1875 C-23.11648438 7.22520508 -23.11648438 7.22520508 -24.765625 7.26367188 C-31.26748241 7.32314008 -36.08163414 6.73652596 -42 4 C-38.26416016 2.88623047 -38.26416016 2.88623047 -35.88671875 3.91015625 C-31.57260693 5.538894 -27.38903456 5.42466822 -22.8125 5.4375 C-21.87301514 5.44136719 -20.93353027 5.44523438 -19.96557617 5.44921875 C-12.58092889 5.32600225 -6.31992236 0 0 0 Z " fill="#005000" transform="translate(523,509)"/>
<path d="M0 0 C0.33 0.66 0.66 1.32 1 2 C0.44925072 3.33579521 -0.16906054 4.64380016 -0.8125 5.9375 C-4.18737061 13.84333877 -4.33869348 22.52483486 -5 31 C-4.34 31 -3.68 31 -3 31 C-3 28.03 -3 25.06 -3 22 C-2.67 22 -2.34 22 -2 22 C-1.34 27.28 -0.68 32.56 0 38 C-0.66 38 -1.32 38 -2 38 C-2.66 39.32 -3.32 40.64 -4 42 C-5.67177439 36.14210254 -6.38614862 30.83466854 -6.375 24.75 C-6.37483887 23.92242187 -6.37467773 23.09484375 -6.37451172 22.2421875 C-6.22398042 14.10399019 -4.55840906 6.8376136 0 0 Z " fill="#003E00" transform="translate(459,449)"/>
<path d="M0 0 C2.61519973 0.46150583 4.94723181 0.97807036 7.40625 2 C12.68857367 3.46986398 17.91516307 3.47065832 23.375 3.625 C25.05142578 3.68300781 25.05142578 3.68300781 26.76171875 3.7421875 C29.50765161 3.83606555 32.25358476 3.92174911 35 4 C35 4.66 35 5.32 35 6 C30.66689672 6.116965 26.3342042 6.1875089 22 6.25 C20.77925781 6.28351562 19.55851562 6.31703125 18.30078125 6.3515625 C11.0135369 6.43034352 6.19522369 5.93396704 0 2 C0 1.34 0 0.68 0 0 Z " fill="#000E00" transform="translate(478,512)"/>
<path d="M0 0 C6.5708341 7.50952469 6.44342323 15.91710552 6.3125 25.375 C6.31572266 26.56222656 6.31894531 27.74945313 6.32226562 28.97265625 C6.26732824 37.73267176 6.26732824 37.73267176 4 40 C4.01571045 39.21874756 4.0314209 38.43749512 4.04760742 37.63256836 C4.11025239 34.06762021 4.14908489 30.50278823 4.1875 26.9375 C4.21263672 25.70837891 4.23777344 24.47925781 4.26367188 23.21289062 C4.34314091 14.18688704 4.34314091 14.18688704 1 6 C0.34 5.67 -0.32 5.34 -1 5 C-0.649375 5.598125 -0.29875 6.19625 0.0625 6.8125 C1 9 1 9 0 12 C0 11.34 0 10.68 0 10 C-0.66 10 -1.32 10 -2 10 C-2.66 7.36 -3.32 4.72 -4 2 C-2.68 2.33 -1.36 2.66 0 3 C0 2.01 0 1.02 0 0 Z " fill="#004600" transform="translate(539,449)"/>
<path d="M0 0 C3 1 3 1 4.17529297 2.69628906 C5.19309021 5.53937218 5.22611827 7.84040948 5.1953125 10.859375 C5.18886719 11.97441406 5.18242188 13.08945312 5.17578125 14.23828125 C5.15902344 15.39714844 5.14226563 16.55601562 5.125 17.75 C5.11597656 18.92433594 5.10695313 20.09867187 5.09765625 21.30859375 C5.07410063 24.20593536 5.04120652 27.10286441 5 30 C4.67 30 4.34 30 4 30 C3.96261719 28.72125 3.92523437 27.4425 3.88671875 26.125 C3.82101258 24.4166396 3.75456689 22.70830753 3.6875 21 C3.66494141 20.16082031 3.64238281 19.32164062 3.61914062 18.45703125 C3.37293934 12.68249203 2.18442891 8.34101653 0 3 C0 2.01 0 1.02 0 0 Z " fill="#000700" transform="translate(538,454)"/>
<path d="M0 0 C1.10085938 0.00644531 2.20171875 0.01289063 3.3359375 0.01953125 C6.50509206 0.18137644 9.50948397 0.5992228 12.625 1.1875 C12.625 1.8475 12.625 2.5075 12.625 3.1875 C1.24 2.6925 1.24 2.6925 -10.375 2.1875 C-6.2486775 0.12433875 -4.4855236 -0.05750671 0 0 Z " fill="#000800" transform="translate(499.375,428.8125)"/>
<path d="M0 0 C2 0 2 0 3.625 1.5 C4.07875 1.995 4.5325 2.49 5 3 C3.64002446 9.04433574 0.14348206 12.63494136 -4 17 C-4.66 16.67 -5.32 16.34 -6 16 C-5.59007812 15.55269531 -5.18015625 15.10539062 -4.7578125 14.64453125 C-1.74359926 11.26255515 0.66050545 8.420332 2 4 C1.34 4 0.68 4 0 4 C0 2.68 0 1.36 0 0 Z " fill="#003C00" transform="translate(536,492)"/>
<path d="M0 0 C-0.56460937 0.27585937 -1.12921875 0.55171875 -1.7109375 0.8359375 C-4.8632464 2.43898878 -7.91093906 4.21459288 -10.9765625 5.9765625 C-13 7 -13 7 -15 7 C-14.1875 5.0625 -14.1875 5.0625 -13 3 C-12.01 2.67 -11.02 2.34 -10 2 C-10 1.34 -10 0.68 -10 0 C-6.42355152 -1.2380014 -3.66305234 -0.74926071 0 0 Z " fill="#000D00" transform="translate(489,432)"/>
<path d="M0 0 C0.66 0.33 1.32 0.66 2 1 C-0.31 3.64 -2.62 6.28 -5 9 C-5.99 8.67 -6.98 8.34 -8 8 C-5.36 5.36 -2.72 2.72 0 0 Z " fill="#00C800" transform="translate(474,439)"/>
</svg>
